# xmcd CD database file
#
# Track frame offsets:
#	150
#	12634
#	27844
#	42441
#	60500
#	74065
#	88689
#	106334
#	123959
#	137660
#	148764
#
# Disc length: 2220 seconds
#
# Revision: 0
# Processed by: cddbd v1.5.2PL0 Copyright (c) Steve Scherf et al.
# Submitted via: CDex 1.51
#
DISCID=9f08aa0b
DTITLE=Kimberley Dahme - You Barely Even Touched Me
DYEAR=1900
DGENRE=Country
TTITLE0=Don`t make me wait
TTITLE1=You Barely even touched me
TTITLE2=Strong enough
TTITLE3=Crying out for Love
TTITLE4=Who Loves You Baby
TTITLE5=Baby I Want You
TTITLE6=Can`t Do Nothing `Bout That
TTITLE7=Appetite For Love
TTITLE8=Somrthing Fishy
TTITLE9=Crazy In Love
TTITLE10=Watching A Leaf Fall
EXTD=
EXTT0=
EXTT1=
EXTT2=
EXTT3=
EXTT4=
EXTT5=
EXTT6=
EXTT7=
EXTT8=
EXTT9=
EXTT10=
PLAYORDER=
